<?xml version="1.0" encoding="iso-8859-1"?>
<!-- Uploaded to: SVG Repo, www.svgrepo.com, Generator: SVG Repo Mixer Tools -->
<svg fill="#000000" height="800px" width="800px" version="1.1" id="Layer_1" xmlns="http://www.w3.org/2000/svg" xmlns:xlink="http://www.w3.org/1999/xlink" 
	 viewBox="0 0 512.001 512.001" xml:space="preserve">
<g>
	<g>
		<g>
			<path d="M478.293,42.668H33.708C15.121,42.668,0,57.788,0,76.374v359.25c0,18.587,15.121,33.709,33.708,33.709h444.586
				c18.586,0,33.707-15.122,33.707-33.709V76.374C512,57.788,496.879,42.668,478.293,42.668z M490.666,435.625h-0.001
				c0,6.823-5.55,12.374-12.372,12.374H33.708c-6.823,0-12.373-5.55-12.373-12.374V76.374c0-6.822,5.55-12.372,12.373-12.372
				h444.586c6.822,0,12.372,5.55,12.372,12.372V435.625z"/>
			<path d="M458.663,85.334H53.332c-5.892,0-10.667,4.777-10.667,10.667v294.163c0,5.891,4.776,10.667,10.667,10.667h405.331
				c5.892,0,10.667-4.777,10.667-10.667V96.001C469.33,90.109,464.555,85.334,458.663,85.334z M447.995,379.495H63.999V106.668
				h383.996V379.495z"/>
			<path d="M206.93,291.841c4.556,7.866,13.039,12.753,22.133,12.753c4.481,0,8.906-1.19,12.782-3.437l31.117-17.968
				c0.217-0.126,0.428-0.258,0.635-0.398l30.18-17.424c4.009-2.244,7.342-5.545,9.644-9.548c3.396-5.911,4.288-12.791,2.51-19.375
				c-1.777-6.585-6.013-12.082-11.907-15.469l-30.057-17.354c-0.335-0.213-0.671-0.421-1.008-0.614l-29.95-17.29
				c-4.155-2.712-8.97-4.143-13.959-4.143c-14.115,0-25.598,11.481-25.598,25.593v71.861c0,0.364,0.019,0.724,0.054,1.078
				C203.683,284.219,204.855,288.252,206.93,291.841z M224.788,207.167L224.788,207.167c0-2.348,1.913-4.258,4.263-4.258
				c1.077,0,1.876,0.387,2.356,0.714c0.211,0.143,0.427,0.278,0.647,0.405l30.256,17.465c0.081,0.048,0.158,0.1,0.236,0.151
				c0.169,0.111,0.339,0.216,0.514,0.317l30.315,17.501c1.311,0.753,1.79,1.918,1.959,2.544c0.17,0.627,0.341,1.874-0.41,3.181
				c-0.388,0.676-0.923,1.206-1.588,1.576c-0.052,0.029-0.107,0.06-0.158,0.09l-30.898,17.839c-0.217,0.125-0.429,0.258-0.636,0.398
				l-30.48,17.601c-0.653,0.378-1.36,0.57-2.101,0.57c-1.534,0-2.907-0.789-3.669-2.106c-0.381-0.66-0.575-1.376-0.575-2.125
				c0-0.276-0.011-0.549-0.031-0.82V207.167z"/>
			<path d="M96.006,248.198c5.892,0,10.667-4.777,10.667-10.667v-0.256c0-5.891-4.776-10.667-10.667-10.667
				s-10.667,4.777-10.667,10.667v0.256C85.338,243.423,90.114,248.198,96.006,248.198z"/>
			<path d="M96.001,358.167c5.892,0,10.667-4.777,10.667-10.667v-79.326c0-5.892-4.776-10.667-10.667-10.667
				c-5.892,0-10.667,4.776-10.667,10.667v79.326C85.334,353.391,90.11,358.167,96.001,358.167z"/>
			<path d="M416.003,237.965c-5.891,0-10.667,4.777-10.667,10.667v0.256c0,5.891,4.777,10.667,10.667,10.667
				s10.667-4.777,10.667-10.667v-0.256C426.67,242.741,421.893,237.965,416.003,237.965z"/>
			<path d="M415.999,228.658c5.891,0,10.667-4.777,10.667-10.667v-79.326c0-5.891-4.777-10.667-10.667-10.667
				s-10.667,4.777-10.667,10.667v79.326C405.331,223.882,410.107,228.658,415.999,228.658z"/>
			<path d="M255.999,411.079c-7.343,0-13.333,5.99-13.333,13.334c0,7.342,5.99,13.332,13.333,13.332
				c7.345,0,13.333-5.99,13.333-13.332C269.333,417.069,263.343,411.079,255.999,411.079z"/>
		</g>
	</g>
</g>
</svg>